<?xml version="1.0" encoding="UTF-8" standalone="no"?>
<svg
   fill="currentColor"
   viewBox="0 0 21 21"
   version="1.1"
   id="svg1"
   sodipodi:docname="flip-board.svg"
   inkscape:version="1.4.2 (ebf0e940, 2025-05-08)"
   xmlns:inkscape="http://www.inkscape.org/namespaces/inkscape"
   xmlns:sodipodi="http://sodipodi.sourceforge.net/DTD/sodipodi-0.dtd"
   xmlns="http://www.w3.org/2000/svg"
   xmlns:svg="http://www.w3.org/2000/svg">
  <defs
     id="defs1" />
  <sodipodi:namedview
     id="namedview1"
     pagecolor="#ffffff"
     bordercolor="#000000"
     borderopacity="0.25"
     inkscape:showpageshadow="2"
     inkscape:pageopacity="0.0"
     inkscape:pagecheckerboard="0"
     inkscape:deskcolor="#d1d1d1"
     inkscape:zoom="12.498975"
     inkscape:cx="3.4002789"
     inkscape:cy="18.081483"
     inkscape:window-width="1312"
     inkscape:window-height="829"
     inkscape:window-x="2384"
     inkscape:window-y="346"
     inkscape:window-maximized="0"
     inkscape:current-layer="svg1" />
  <path
     style="stroke:currentColor;stroke-width:0.8"
     d="m 11.283487,6.267074 c -1.8362108,0.918105 -2.7236069,2.2492 -2.7236069,4.052786 0,1.803587 0.8873961,3.134681 2.7236069,4.052787 0.246989,0.123494 0.347101,0.423831 0.223606,0.67082 -0.123494,0.246989 -0.423831,0.347101 -0.67082,0.223607 -2.163789,-1.081895 -3.2763929,-2.750801 -3.2763929,-4.947214 0,-2.196413 1.1126039,-3.865318 3.2763929,-4.947213 0.246989,-0.123495 0.547326,-0.02338 0.67082,0.223607 0.123495,0.246989 0.02338,0.547325 -0.223606,0.67082 z M 10.55988,6.319864 H 8.0598801 c -0.2761424,0 -0.5,-0.223857 -0.5,-0.5 0,-0.276142 0.2238576,-0.5 0.5,-0.5 H 11.05988 c 0.276142,0 0.5,0.223858 0.5,0.5 v 3 c 0,0.276143 -0.223858,0.5 -0.5,0.5 -0.276143,0 -0.5,-0.223857 -0.5,-0.5 z m -8.9999999,-2.5 c 0,-1.380711 1.1192881,-2.5 2.5,-2.5 0.2761424,0 0.5,0.223858 0.5,0.5 0,0.276143 -0.2238576,0.5 -0.5,0.5 -0.8284271,0 -1.5,0.671573 -1.5,1.5 0,0.276143 -0.2238576,0.5 -0.5,0.5 -0.2761424,0 -0.5,-0.223857 -0.5,-0.5 z m 1,2 v 2 c 0,0.276143 -0.2238576,0.5 -0.5,0.5 -0.2761424,0 -0.5,-0.223857 -0.5,-0.5 v -2 c 0,-0.276142 0.2238576,-0.5 0.5,-0.5 0.2761424,0 0.5,0.223858 0.5,0.5 z m 4.5,-4.5 h 2 c 0.2761424,0 0.5,0.223858 0.5,0.5 0,0.276143 -0.2238576,0.5 -0.5,0.5 h -2 c -0.2761424,0 -0.5,-0.223857 -0.5,-0.5 0,-0.276142 0.2238576,-0.5 0.5,-0.5 z m 4.9999999,0 h 2 c 0.276142,0 0.5,0.223858 0.5,0.5 0,0.276143 -0.223858,0.5 -0.5,0.5 h -2 c -0.276143,0 -0.5,-0.223857 -0.5,-0.5 0,-0.276142 0.223857,-0.5 0.5,-0.5 z m 5,0 c 1.380712,0 2.5,1.119289 2.5,2.5 0,0.276143 -0.223858,0.5 -0.5,0.5 -0.276143,0 -0.5,-0.223857 -0.5,-0.5 0,-0.828427 -0.671573,-1.5 -1.5,-1.5 -0.276143,0 -0.5,-0.223857 -0.5,-0.5 0,-0.276142 0.223857,-0.5 0.5,-0.5 z m 2.5,4.5 v 2 c 0,0.276143 -0.223858,0.5 -0.5,0.5 -0.276143,0 -0.5,-0.223857 -0.5,-0.5 v -2 c 0,-0.276142 0.223857,-0.5 0.5,-0.5 0.276142,0 0.5,0.223858 0.5,0.5 z m -18.4999999,4.5 h 4 c 0.2761424,0 0.5,0.223858 0.5,0.5 0,0.276143 -0.2238576,0.5 -0.5,0.5 h -4 c -0.27614239,0 -0.50000005,-0.223857 -0.50000005,-0.5 0,-0.276142 0.22385766,-0.5 0.50000005,-0.5 z m 11.9999999,0 h 7 c 0.276142,0 0.5,0.223858 0.5,0.5 0,0.276143 -0.223858,0.5 -0.5,0.5 h -7 c -0.276143,0 -0.5,-0.223857 -0.5,-0.5 0,-0.276142 0.223857,-0.5 0.5,-0.5 z M 2.5598801,13.81986 v 3 c 0,0.828427 0.6715729,1.5 1.5,1.5 H 17.05988 c 0.828427,0 1.5,-0.671573 1.5,-1.5 v -3 c 0,-0.276142 0.223857,-0.5 0.5,-0.5 0.276142,0 0.5,0.223858 0.5,0.5 v 3 c 0,1.380712 -1.119288,2.5 -2.5,2.5 H 4.0598801 c -1.3807119,0 -2.5,-1.119288 -2.5,-2.5 v -3 c 0,-0.276142 0.2238576,-0.5 0.5,-0.5 0.2761424,0 0.5,0.223858 0.5,0.5 z"
     id="path1" />
</svg>
