<?xml version="1.0" encoding="UTF-8" standalone="no"?>
<svg
   viewBox="0 0 32 32"
   fill="currentColor"
   version="1.1"
   id="svg1"
   sodipodi:docname="pdf.svg"
   inkscape:version="1.4.2 (ebf0e940, 2025-05-08)"
   xmlns:inkscape="http://www.inkscape.org/namespaces/inkscape"
   xmlns:sodipodi="http://sodipodi.sourceforge.net/DTD/sodipodi-0.dtd"
   xmlns="http://www.w3.org/2000/svg"
   xmlns:svg="http://www.w3.org/2000/svg">
  <path
     d="m 16,13 h 2 v 6 H 16 V 13 M 6,15 H 8 V 13 H 6 v 2 M 32,4 v 24 a 4,4 0 0 1 -4,4 H 3.9999999 A 4,4 0 0 1 0,28 V 4 A 4,4 0 0 1 3.9999999,0 H 28 a 4,4 0 0 1 4,4 M 11,13 A 3,3 0 0 0 8,10 H 3 v 12 h 3 v -4 h 2 a 3,3 0 0 0 3,-3 v -2 m 10,0 a 3,3 0 0 0 -3,-3 h -5 v 12 h 5 a 3,3 0 0 0 3,-3 v -6 m 8,-3 h -6 v 12 h 3 v -4 h 3 v -3 h -3 v -2 h 3 z"
     id="path1" />
</svg>
