<?xml version="1.0" standalone="no"?>
<!DOCTYPE svg PUBLIC "-//W3C//DTD SVG 20010904//EN"
 "http://www.w3.org/TR/2001/REC-SVG-20010904/DTD/svg10.dtd">
<svg version="1.0" xmlns="http://www.w3.org/2000/svg"
 width="360.000000pt" height="360.000000pt" viewBox="0 0 360.000000 360.000000"
 preserveAspectRatio="xMidYMid meet">
<metadata>
Created by potrace 1.14, written by Peter Selinger 2001-2017
</metadata>
<g transform="translate(0.000000,360.000000) scale(0.100000,-0.100000)"
fill="#000000" stroke="none">
<path d="M1739 3152 c-35 -21 -97 -58 -138 -82 -82 -47 -183 -144 -219 -208
l-23 -41 46 -7 c28 -4 64 -1 91 6 38 11 54 24 104 89 32 42 69 82 82 90 14 9
8 -2 -17 -30 -23 -24 -60 -69 -83 -100 -39 -52 -66 -75 -147 -124 l-30 -18 30
26 c17 15 33 26 38 27 4 0 7 4 7 9 0 4 -31 11 -69 15 -85 9 -125 -8 -147 -59
-18 -44 -18 -64 0 -39 13 17 14 15 9 -22 -11 -88 83 -132 202 -93 6 2 26 -5
45 -16 19 -10 49 -22 65 -26 28 -6 28 -7 5 -8 -14 -1 -46 7 -72 16 -47 17 -48
17 -74 -8 -14 -13 -30 -33 -35 -44 -7 -15 -8 -12 -4 13 4 29 3 32 -14 22 -32
-16 -77 -78 -90 -121 -19 -61 3 -107 64 -136 l30 -14 -40 6 c-22 4 -44 11 -49
16 -31 30 -28 -16 5 -83 22 -44 67 -77 113 -85 53 -8 43 -36 -24 -67 -56 -27
-97 -29 -124 -7 -12 10 -17 8 -26 -9 -7 -12 -10 -30 -7 -40 3 -11 -2 -21 -11
-25 -11 -4 -6 -11 21 -25 44 -24 67 -25 67 -5 0 9 7 18 16 22 8 3 13 12 10 19
-4 9 19 25 71 49 42 19 82 35 89 35 7 0 26 -12 43 -26 17 -14 31 -23 31 -20 0
3 28 -8 63 -24 80 -38 157 -53 232 -44 33 3 57 3 54 0 -3 -4 -47 -10 -96 -15
-113 -10 -150 -28 -277 -131 -54 -44 -102 -80 -107 -80 -22 0 -5 -30 46 -80
30 -30 55 -59 55 -64 0 -6 -17 7 -38 27 -21 20 -40 37 -44 37 -3 0 -5 -17 -4
-37 1 -38 1 -38 -41 -41 l-43 -3 0 60 c0 32 -3 66 -6 74 -9 25 -42 7 -54 -29
-6 -18 -20 -36 -32 -40 -23 -7 -47 10 -29 20 6 4 11 11 11 17 0 14 -22 11 -42
-8 -18 -16 -28 -10 -211 113 -214 144 -348 263 -423 376 -64 95 -103 89 -70
-10 26 -78 104 -153 383 -368 330 -254 685 -543 678 -554 -3 -4 3 -14 13 -21
15 -13 16 -12 3 4 -20 25 2 21 25 -5 12 -13 13 -18 4 -13 -9 5 -8 0 4 -13 21
-25 36 -31 16 -7 -20 24 5 17 26 -7 12 -13 13 -18 4 -13 -9 5 -8 0 4 -13 21
-25 36 -31 16 -7 -26 31 7 12 55 -32 l50 -45 -45 32 -45 32 45 -41 c45 -40 68
-53 54 -28 -6 8 -3 8 9 -1 9 -8 15 -18 14 -23 -1 -4 144 -126 323 -269 358
-288 423 -329 535 -338 43 -3 65 -1 70 8 11 19 -7 30 -76 46 -35 8 -89 29
-119 46 -82 46 -277 186 -284 204 -3 8 -11 12 -17 8 -7 -4 -9 -3 -5 4 8 13
-33 44 -47 35 -6 -3 -7 -1 -4 4 4 6 -15 28 -41 49 -50 40 -377 318 -401 340
-12 11 -11 16 10 33 21 17 22 22 11 40 -7 12 -10 21 -7 21 10 0 289 -132 300
-142 5 -5 2 -8 -8 -8 -10 0 -20 -7 -23 -15 -4 -10 -13 -13 -25 -10 -12 4 -21
1 -24 -8 -9 -21 12 -67 30 -67 12 0 15 -6 9 -22 -6 -19 -5 -21 8 -11 8 7 23
10 34 7 28 -7 74 30 57 47 -6 6 -9 18 -6 25 3 8 0 21 -7 29 -7 8 -10 15 -6 15
3 0 162 -74 353 -166 192 -91 373 -172 403 -180 70 -18 170 -18 196 0 30 23 6
37 -77 42 -98 6 -162 27 -362 123 -93 45 -173 79 -177 76 -9 -6 -305 138 -313
153 -3 4 50 143 117 307 219 534 197 488 232 497 47 12 66 39 62 89 -3 39 -7
46 -43 66 -28 15 -42 31 -45 50 -3 18 -15 33 -33 41 -16 8 -41 31 -55 52 -15
21 -36 43 -47 49 -19 9 -19 10 -1 10 18 1 18 3 -6 29 -36 38 -55 79 -64 137
-7 50 -32 85 -94 128 -25 17 -25 17 7 2 18 -8 37 -15 43 -15 17 0 -27 58 -95
125 l-60 60 50 -29 50 -29 -25 28 c-14 15 -52 45 -84 66 -33 22 -56 39 -52 39
17 0 91 -44 126 -77 22 -19 40 -30 40 -24 0 32 -33 83 -71 110 -23 17 -38 31
-32 31 20 0 93 -60 108 -90 20 -39 26 -38 20 3 l-5 32 11 -35 c6 -19 13 -41
15 -47 2 -7 16 -13 32 -13 26 0 30 4 39 48 l10 47 2 -42 c1 -41 3 -43 31 -43
33 0 90 25 90 39 0 4 14 25 30 46 25 31 30 47 30 91 0 62 -31 153 -66 192
l-24 27 6 -30 c3 -16 -3 -61 -14 -99 l-19 -69 -13 49 c-27 100 -85 186 -120
177 -43 -11 -44 -31 -5 -74 36 -40 82 -126 72 -136 -3 -2 -10 11 -17 30 -12
40 -85 127 -105 127 -7 0 -18 -13 -24 -28 -9 -22 -9 -35 4 -65 8 -20 15 -49
14 -64 0 -22 -3 -17 -13 19 -16 58 -33 80 -60 76 -15 -2 -29 8 -49 35 -30 41
-58 47 -107 22 -17 -9 -30 -13 -30 -10 0 3 18 14 40 24 22 10 37 21 33 24 -13
14 -41 6 -82 -24 -32 -23 -40 -25 -32 -11 6 11 25 32 42 47 l32 27 -39 -8
c-21 -4 -50 -11 -63 -16 -13 -5 -26 -6 -29 -3 -3 3 -3 5 -1 5 2 0 22 7 44 15
l40 14 -46 1 c-35 0 -60 -9 -110 -38z m310 -142 c21 -10 41 -17 43 -15 3 3 10
-6 16 -19 l11 -24 -44 25 c-53 29 -134 39 -192 24 -24 -7 -73 -32 -110 -57
l-68 -45 45 40 c99 89 212 116 299 71z m-64 -378 c19 -51 32 -98 29 -106 -7
-19 38 -116 73 -157 17 -18 40 -53 52 -76 25 -49 34 -55 25 -15 l-6 27 21 -25
c25 -30 61 -121 61 -154 0 -13 6 -29 14 -35 17 -14 103 -3 136 18 17 11 22 12
16 2 -5 -7 -24 -19 -42 -27 -19 -8 -34 -18 -34 -23 0 -31 77 -43 135 -21 14 5
24 6 21 1 -3 -4 -27 -14 -52 -21 -47 -13 -47 -14 -25 -31 11 -9 21 -22 21 -28
0 -10 -309 -791 -317 -800 -5 -6 -123 51 -123 59 0 4 9 15 20 25 48 43 7 90
-78 89 -54 0 -55 0 -27 12 17 7 39 13 49 14 18 0 18 2 -6 28 -61 66 -81 115
-58 138 5 5 17 38 26 74 15 59 24 72 110 164 51 55 92 102 89 104 -2 2 -21 -9
-42 -26 -21 -16 -67 -40 -103 -52 -78 -28 -100 -44 -50 -38 19 3 44 9 55 13
11 4 -7 -13 -40 -39 -32 -26 -71 -56 -85 -68 -20 -16 -21 -18 -5 -13 12 4 16
3 10 -3 -5 -5 -37 -33 -70 -62 -33 -30 -65 -67 -72 -84 l-11 -31 -1 27 c-1 20
12 38 51 72 41 36 48 46 32 46 -11 0 -41 -10 -67 -23 l-46 -24 19 51 c26 68
89 128 160 151 75 24 265 114 257 121 -3 4 -20 1 -38 -5 -54 -19 -57 -11 -4
10 64 26 114 64 126 96 22 58 -33 132 -124 167 -60 22 -56 32 3 11 58 -21 109
-61 125 -99 l13 -31 7 27 c17 66 -53 149 -172 205 -29 13 -53 26 -53 28 0 6
42 -10 82 -31 l31 -16 -6 41 c-3 23 -16 54 -31 72 -14 17 -26 35 -26 39 0 5
-12 35 -26 67 -14 32 -27 76 -29 99 -3 47 -28 101 -59 127 -20 18 -20 19 -1
13 18 -6 18 -4 -3 13 -15 13 -18 21 -10 24 22 8 38 -16 73 -111z m150 -15 c6
-6 -5 -1 -23 9 -18 10 -43 30 -55 43 -16 18 -10 16 23 -9 25 -18 50 -38 55
-43z m-367 -1301 c3 -77 -38 -97 -98 -48 -36 31 -51 69 -22 56 42 -17 70 -16
84 5 8 11 18 18 21 14 4 -3 7 -2 7 4 0 5 -9 18 -20 28 -11 10 -20 23 -20 29 1
6 11 -1 23 -16 15 -18 23 -43 25 -72z m757 -367 c73 -41 70 -47 -5 -9 -53 27
-71 40 -55 40 3 0 30 -14 60 -31z"/>
<path d="M1640 1306 c0 -2 12 -12 28 -21 l27 -18 -19 21 c-17 20 -36 29 -36
18z"/>
<path d="M564 1956 c-10 -25 34 -84 105 -143 48 -39 125 -84 280 -159 117 -58
215 -104 217 -102 11 12 -188 149 -291 200 -91 45 -143 78 -213 139 -69 59
-94 76 -98 65z"/>
</g>
</svg>
